<?xml version="1.0" encoding="UTF-8"?>
<svg id="Layer_1" data-name="Layer 1" xmlns="http://www.w3.org/2000/svg" version="1.1" viewBox="0 0 61 61">
  <defs>
    <style>
      .cls-1 {
        fill: #2f1a24;
      }

      .cls-1, .cls-2, .cls-3, .cls-4, .cls-5, .cls-6, .cls-7 {
        stroke-width: 0px;
      }

      .cls-2 {
        fill: #e67f45;
      }

      .cls-3 {
        fill: #371c22;
      }

      .cls-4 {
        fill: #eee6d4;
      }

      .cls-5 {
        fill: #4d1f19;
      }

      .cls-6 {
        fill: #3ea6c6;
      }

      .cls-7 {
        fill: #efe9d6;
      }
    </style>
  </defs>
  <ellipse class="cls-6" cx="30.5" cy="30.5" rx="30.3" ry="30"/>
  <g>
    <path class="cls-4" d="M14.3,41.1c0,.3,0,.6,0,.9-.2-.7-.2-1.4-1.3-1.3,1,0,1.3-.6,1.1-1.5,0,0,.1,0,.2,0,0,.3,0,.8.2,1s.6.3.9.4c-.3.1-.6.2-.9.4Z"/>
    <path class="cls-4" d="M43.8,38.4c.2.4.2,1.1,1.1.9-.9.1-.9.8-.9,1.6-.5-.6,0-1.5-1.2-1.4,0,0,0-.1.2-.2.2,0,.4-.2.6-.2,0-.2.2-.5.3-.7Z"/>
    <path class="cls-4" d="M44.9,24c.4.2.8.5,1,.7-1.2-.2-.8.8-.9,1.5-.3-.6,0-1.7-1.2-1.5.4-.3.8-.5,1.2-.7Z"/>
    <path class="cls-5" d="M51.2,29c-.2-.2-.4-.4-.5-.5.2-.2.5-.5.8-.8,0,.3.2.8.6.8-.2.3-.5.6-.8.9,0,0,0-.2,0-.4Z"/>
    <path class="cls-5" d="M18.4,14.8c.2-.3.4-.5.5-.7.2.2.5.5.7.7-.6,0-.5.6-.6,1.2-.3-.4,0-1-.6-1.2Z"/>
    <path class="cls-2" d="M17.7,21.4c-.1,0-.3,0-.5,0,0,0,.3,0,.5,0Z"/>
    <path class="cls-2" d="M17.2,21.4c0,0,0,0-.2.2,0,0,0,0,.2-.2Z"/>
    <path class="cls-2" d="M16.2,22.3s0,0,0,.1c0,0,0,0,0-.1Z"/>
    <g>
      <g>
        <path class="cls-4" d="M34.2,23.7c.3-.7.6-1.5.9-2.2.4-.6.7-1.2,1-1.8.5-1,1.3-1.8,2.5-1.9.6,0,1.2,0,1.6.6.3.5,0,.9-.3,1.3,0,0,0,0,0,.2.2,0,.3.2.5.2-1.6,1.3-1.7,3-1.5,4.9.2,1.4.3,2.8.3,4.3-.1,2.3-1.2,4-3.3,5.2-.4.2-.7.3-1,.5-2.8,1.2-5.7.9-8.6,0-.7-.3-1.3-.5-1.8-.8,1.2-.2,2.3-.3,3.4-.5.2,0,.4-.3.6-.5-.2,0-.4-.3-.6-.3-.8,0-1.5,0-2.3,0-.9,0-1.8-.2-2.7-.3v-.2c.3,0,.6-.1.9-.2,3.3-.6,6.3-1.8,8.6-4.5.9-1.1,1.8-2.3,2-3.8,0,0,0-.2,0-.2M38.3,18.4c0,.4,0,.7.5.8.3,0,.6,0,.8-.2,0,0,0-.5,0-.6-.3-.2-.7-.2-1.1-.2,0,0-.1,0-.2.3Z"/>
        <path class="cls-1" d="M19.2,31"/>
        <path class="cls-2" d="M17,28.9s0,0,0,0c2.2,0,4.2,0,6.3,0,0,0,0,.1-.2.2,0,0-.1.1-.2.2h0c-.1,0-.2,0-.3.2,0,0,0,0,0,0,0,0-.2,0-.2,0h0c-.4,0-.8-.2-1.2-.2-1.3,0-2.5,0-3.8,0-1.2,0-2.3-.2-3.5-.4-.2,0-.3-.1-.4-.2.6,0,1.2,0,1.8.2,0,0,0,0,0,0,.5,0,.9,0,1.3,0Z"/>
        <path class="cls-1" d="M22.4,29.7h0c0,0,.1,0,.2-.1h.1c.1,0,.2,0,.3-.2h0c0,0,0,0,.2-.2,0,0,0-.2,0-.2-.2,0-.5-.2-.7-.1-1.1,0-2.2.1-3.3.1s-1,0-1.8,0c0,0-.5,0-.6,0-.5,0-.8-.1-1.2-.2,0,0-.2,0-.2,0-.2,0-.3,0-.4-.1.2,0,.5-.2.8-.3.1,0,.2,0,.4,0,2.1-.2,4-.2,6-.5,3.7-.5,7.3-1.6,10.7-3.3.2,0,.3-.3.5-.4h0c.3,0,.6-.2.8-.2-.2,1.5-1.1,2.7-2,3.8-2.2,2.6-5.3,3.8-8.6,4.5-.3,0-.6.1-.9.2v.2c.9,0,1.8.2,2.7.3.8,0,1.5,0,2.3,0,.2,0,.4.2.6.3-.2.2-.4.4-.6.5-1.1.2-2.2.3-3.5.5-.2,0-.4,0-.5,0-.5,0-.9-.2-1.3-.2,0,0,0,0,0,0-.2,0-.4,0-.5-.1h0c-.2,0-.3-.1-.4-.2h0c-.1,0-.2,0-.3-.1h0c-.2,0-.4-.2-.6-.2-1.5,0-3-.2-4.5-.3-1.2,0-2.4-.2-3.6-.2,0,0,0,0,0,0-.2,0-.3-.2-.4-.2,0,0,.2,0,.2,0,1.5-.2,3-.4,4.4-.5.2,0,.4-.1.6-.2,0,0,.3,0,.3,0,.4,0,.5-.2.8-.2,0,0,.2,0,.3,0"/>
        <path class="cls-1" d="M19.9,30.8c.1,0,.2,0,.3-.1h0c.2,0,.3-.1.4-.2h0"/>
        <path class="cls-3" d="M40.4,19.9c-.2,0-.4-.1-.5-.2,0,0,0-.2,0-.2.2-.4.6-.8.3-1.3-.4-.5-1-.7-1.6-.6-1.2.2-1.9.9-2.5,1.9-.3.6-.6,1.2-1,1.8.2-2.3.5-4.6.8-6.9.2-1.4.5-2.8.8-4.2,0-.3.2-.6.4-.9,0,1.6.2,3.2.2,4.8,0,0,.2,0,.3,0,.2-.6.4-1.2.7-1.9.2.2.2.3.3.5.5,1.8,1.5,3.3,2.7,4.7.5.5,1.2.9,1.8,1.3.3.2.6.5,1,.7-1.2.1-2.4.3-3.6.4Z"/>
        <path class="cls-3" d="M26.2,34.9c2.9.8,5.8,1,8.6-.1.3-.1.6-.3,1-.5-.2.4-.5.8-.8,1.1-.8.5-1.6,1-2.7,1.6v1.8c0-.5,0-1.1,0-1.5,0-.2-.2-.3-.3-.5-.1,0-.2,0-.3,0-.4,0-.8,0-1.2,0h0c-.1,0-.2,0-.3,0,0,0-.2,0-.3-.2s-.2,0-.4,0-.1,0-.2,0c-.1,0-.2,0-.4,0-.9-.4-1.7-.8-2.5-1.2h0c0-.2-.1-.3-.2-.4Z"/>
        <path class="cls-5" d="M30.2,36.8s.2,0,.2,0c0,.7,0,1.3,0,1.9,0,1.2,0,1.3,1.5,1.3v-3.2c0,.2.3.3.3.5,0,.5,0,1,0,1.6,0,.6.2.9.7,1.1.3,0,.7.3,1,.5l.2.2h0c-.2.2-.3.2-.5.2-.2,0-.4-.2-.6-.3h0s0,0,0,0c0,.3,0,.5.2.7-.4-.4-.8-.5-1.2-.1-.3-.3-.5-.5-.7-.6-.2.3-.3.5-.4.6,0,0,0,0-.2-.2-.3-.2-.5-.2-.7-.3-.3-.3-.6-.2-.8,0h0c-.2,0-.2,0-.3,0,0,0,0,0,0-.1h0q0-.1,0-.1c.1-.2.2-.3.2-.4h0c.7-.2.9-.6.9-1.3-.2-.8,0-1.5,0-2.3Z"/>
        <path class="cls-5" d="M33.3,24.1c-.1.2-.3.3-.5.5-3.4,1.8-6.9,2.8-10.7,3.3-1.9.3-3.9.4-6,.5,2.5-.3,5-.5,7.5-1,3.4-.6,6.6-1.8,9.6-3.3Z"/>
        <path class="cls-2" d="M12.4,32.7s0,0,0,0c2.9.4,5.5.7,8.5.5,0,0,.2,0,.3.1,0,0,.2,0,.3,0h0c.2,0,.3.1.4.2h0c-3-.2-6-.4-9.1-.7-.9,0-1.8-.3-2.7-.5.8,0,1.5.2,2.2.2Z"/>
        <path class="cls-5" d="M12.5,32.8c-.7,0-1.5-.2-2.3-.2,0,0,0,0,0,0,0,0,0,0,0-.1,0,0,0,0,.2,0,2.4,0,4.7-.2,7-.6-.2.1-.4.3-.6.3-1.5.2-2.9.4-4.4.5,0,0-.1,0-.2,0,.1,0,.2.1.4.2Z"/>
        <path class="cls-2" d="M26.3,34.9c.1.1.1.2.2.4-.5-.2-.9-.4-1.5-.5-1.1-.3-2.3-.6-3.4-1,0,0-.2-.3-.2-.3.2,0,.8.2.9.2,0,0,.7.2.8.2.3,0,.4,0,.8.2h.3c.7.2,1.3.5,2,.8Z"/>
        <path class="cls-5" d="M15.6,28.8c-.6,0-1.2,0-1.8-.2.1-.1.3-.3.5-.3.5,0,1,0,1.6,0-.2.1-.5.2-.7.3.1,0,.3.1.5.2Z"/>
        <path class="cls-5" d="M34.2,23.9c-.3,0-.8.2-.9.2.2-.1.6-.3.9-.4,0,0,0,.2,0,.3Z"/>
        <path class="cls-2" d="M9,32.3s0,0,0,.1c0,0,0,0,0-.1Z"/>
        <path class="cls-1" d="M38.4,18.3c0-.1.2-.2.2-.2.4,0,.7,0,1.1.2,0,0,0,.5,0,.6-.2.2-.6.2-.8.2-.4,0-.5-.4-.4-.8Z"/>
        <path class="cls-5" d="M21.2,33.4c-2.8.2-5.7-.2-8.6-.6,1.2,0,2.4.2,3.6.2,1.5,0,3.2,0,4.7.2.2,0,.6.1.4.2Z"/>
        <path class="cls-5" d="M23.2,29c-2.1,0-4.1,0-6.7-.2.7,0,1.9.1,2.6,0,1.1,0,2.2,0,3.3,0,.2,0,.7,0,.7.2Z"/>
        <path class="cls-5" d="M16.7,28.9c-.4,0-.9,0-1.3-.1.4,0,.9,0,1.3.1Z"/>
        <path class="cls-5" d="M31.7,36.8c-.3,0-.7,0-1.1,0,.3,0,.7,0,1.1,0Z"/>
        <path class="cls-5" d="M29.1,36.5"/>
        <path class="cls-5" d="M29.4,36.5"/>
        <path class="cls-2" d="M33.1,40.7h0Z"/>
      </g>
      <g>
        <path class="cls-5" d="M23.8,47.9c-.2,0-.3,0-.5,0-1.8,0-3.4,0-5.1,0-1.8,0-3.7,0-5.5-.1h0c0-.2,0-.4.2-.5h13.1c-.2.2-.4.5-.6.5-.4,0-.9.1-1.3.2h0s0,0,0,0Z"/>
        <path class="cls-4" d="M21.7,45.8h0c.9,0,1.7,0,2.5,0h.4c.3,0,.6,0,.8,0,.6,0,1.3,0,2.1,0,.6,0,1,0,1.4,0,3,0,5.9,0,8.9,0h0v.4h0c-3.6,0-7.1.1-10.6.2-1.7,0-3.4,0-5.2,0-.2,0-.7.2-.5-.4Z"/>
        <path class="cls-5" d="M50,48.5c-6.5,0-13,0-19.5,0-.2,0-.2-.2-.5-.4.5,0,.9-.2,1.3-.2,5.4,0,10.8,0,16.2,0s1.5,0,2.2,0c.3,0,.7,0,.3.6M42,48.1h-7.4v.2h15v-.2h-7.6Z"/>
        <path class="cls-7" d="M15,50.4c-.9,0-1.8,0-2.6,0,.7-.6,8-.5,8.5,0h-5.9Z"/>
        <path class="cls-4" d="M23.2,43.1c0-.4.1-.5.5-.5,2,0,3.9-.2,5.9-.2.2,0,.7-.1.5.5-.7,0-1.2,0-1.8,0-1.7,0-3.4.1-5.1.2Z"/>
        <path class="cls-7" d="M33.8,49.5h6.1c.2,0,.4,0,.6.1,0,0,.1,0,.2.2h0c0,.1,0,.2-.2.2-2.1,0-4.1,0-6.2,0-.3,0-.5-.2-.8-.4h0c0,0,.1-.1.2-.1,0,0,0,0,0,0Z"/>
        <path class="cls-4" d="M26.1,50.9c.2-.1.4-.2.6-.2,1.6,0,3.2,0,4.7,0s.4.2.6.2c-.2,0-.3.3-.5.3-1.6,0-3.2,0-4.9,0-.2,0-.4,0-.5-.2Z"/>
        <path class="cls-7" d="M44,49.4c1.6,0,3.2,0,4.8,0q0,0,0,0c-.1.2-.2.3-.3.3-1.4,0-2.8,0-4.3,0-.2,0-.3-.2-.4-.4,0,0,0,0,0,0Z"/>
        <path class="cls-4" d="M24.5,43.7v.2c0,0,0,.1,0,.1h-4.5,0c0-.2,0-.3.1-.5h4.2c0,0,0,.1,0,.1Z"/>
        <path class="cls-4" d="M41.4,44c-.3.1-.5.3-.8.3-1.2,0-2.5,0-3.8,0-.2,0-.5,0-.2-.3h4.8Z"/>
        <path class="cls-4" d="M24,47.8h0c1.5.1,2.8.2,4.2.3,0,0,0,0-.2.1-1.4,0-2.7,0-4,0,0,0,0,0,0,0,0-.2,0-.3,0-.4Z"/>
        <path class="cls-4" d="M31.2,44h2.6v.2h-4.8v-.2h2.2Z"/>
        <path class="cls-4" d="M25.8,49.8c.3,0,.6,0,.9,0v.2h-2.9v-.2c.6,0,1.3,0,2,0Z"/>
        <path class="cls-5" d="M18.1,51.1c.2,0,.4.2.5.2v.2c-.4,0-.8,0-1.2,0,0-.6.3-.6.6-.5Z"/>
        <path class="cls-3" d="M42.1,48.1h7.6v.2h-15v-.2h7.4Z"/>
        <path class="cls-6" d="M24,43.4h0Z"/>
      </g>
    </g>
  </g>
</svg>