<?xml version="1.0" encoding="UTF-8"?>
<svg id="Layer_1" data-name="Layer 1" xmlns="http://www.w3.org/2000/svg" version="1.1" viewBox="0 0 1000 1024">
  <defs>
    <style>
      .cls-1 {
        fill: #2f1a24;
      }

      .cls-1, .cls-2, .cls-3, .cls-4, .cls-5, .cls-6, .cls-7 {
        stroke-width: 0px;
      }

      .cls-2 {
        fill: #e67f45;
      }

      .cls-3 {
        fill: #371c22;
      }

      .cls-4 {
        fill: #eee6d4;
      }

      .cls-5 {
        fill: #4d1f19;
      }

      .cls-6 {
        fill: #3ea6c6;
      }

      .cls-7 {
        fill: #efe9d6;
      }
    </style>
  </defs>
  <ellipse class="cls-6" cx="500" cy="512" rx="494.2" ry="489.3"/>
  <g>
    <path class="cls-4" d="M235.8,685.5c-.5,5.4-.5,9.9-1,14.3-2.5-10.9-2.5-23.2-21.7-21.3,16.3-1,21.3-9.4,17.8-23.7,1,0,2,.5,3,.5.5,5.4-.5,12.4,2.5,16.3,3,4,9.9,4.9,14.8,6.9-4.4,2-9.9,4-15.3,6.9Z"/>
    <path class="cls-4" d="M717.7,640.5c4,6.9,3.5,17.3,17.3,15.3-14.8,2-15.3,12.4-15.3,26.2-7.4-9.9-1.5-24.7-19.3-23.2.5-1,1.5-2,2.5-3,3.5-1,6.4-2.5,9.9-3.5,1.5-4,3-8.4,4.9-11.9Z"/>
    <path class="cls-4" d="M734.5,406.7c6.4,3.5,12.4,7.4,16.8,10.9-18.8-3-12.9,13.8-15.3,25.2-4.4-10.4,1.5-27.7-20.3-24.2,6.9-4.4,12.9-7.9,18.8-11.9Z"/>
    <path class="cls-5" d="M836.8,487.8c-3.5-3.5-6.9-5.9-8.9-7.4,3.5-4,7.9-8.9,12.4-13.8,1.5,4.9,2.5,13.3,9.9,12.4-4,4.4-7.9,9.9-12.4,14.8,0-1-.5-3-1-5.9Z"/>
    <path class="cls-5" d="M302.6,256c3-4.9,6.4-8.9,8.9-11.9,3,3.5,7.4,7.4,10.9,11.4-9.4.5-8.9,9.9-9.9,19.8-4.9-6.4,1.5-16.8-9.9-19.3Z"/>
    <path class="cls-2" d="M291.2,363.7c-2,.5-4.4.5-7.4,1,1.5-1,4.4-1.5,7.4-1Z"/>
    <path class="cls-2" d="M282.3,364.2c0,1-1.5,1.5-3,2.5,0-.5,1-1.5,3-2.5Z"/>
    <path class="cls-2" d="M267,378.1c0,.5-.5,1-1.5,2,0-.5.5-1.5,1.5-2Z"/>
    <g>
      <g>
        <path class="cls-4" d="M560.5,400.3c4.9-11.9,9.9-23.7,14.8-36.6,5.9-10.4,11.4-19.8,16.8-29.7,8.9-16.8,21.7-28.7,41-31.6,9.9-1.5,19.8.5,26.2,9.4,5.4,7.9-1.5,14.8-4.9,21.3,0,.5,0,1.5-.5,3,2.5,1,4.9,2.5,7.4,3.5-26.2,21.3-28.2,48.9-23.7,80.1,3.5,23.2,5.4,46.5,4.4,70.2-2,37.1-19.8,65.7-54.4,85-6.4,3-11.4,5.4-16.3,7.4-46.5,18.8-92.9,14.8-140.9,1.5-10.9-4.4-21.3-8.4-30.1-12.9,19.3-2.5,37.1-4.4,55.4-7.4,3.5-.5,6.4-4.9,9.9-7.4-3.5-1.5-6.9-4.4-10.4-4.4-12.4-1-24.7-.5-37.1-1.5-14.8-1-29.7-3-44.5-4.9v-3.5c4.9-1,9.9-2,14.8-2.5,53.9-9.9,103.3-29.7,139.9-72.7,15.3-18.3,29.2-37.6,33.1-62.8-1-1.5-1-2.5-1-3.5M627.8,314.3c-1.5,6.4,0,11.9,7.4,12.4,4.4,0,9.9-1,13.8-3.5,1.5-1,1-8.9,0-9.4-5.4-2.5-11.4-3-17.3-4-1,0-2,1.5-4,4.4Z"/>
        <path class="cls-1" d="M314.9,520.9"/>
        <path class="cls-2" d="M279.3,486.3s.5,0,1.5.5c35.1.5,69.2,1,103.3,1.5-.5,1-1,2-2.5,3.5-1.5,1-2,2-2.5,2.5h-.5c-2,.5-3,1.5-4.4,2.5,0,0,0,.5-.5,1-1,0-2.5-.5-3-.5h0c-6.4-1.5-12.4-3.5-18.8-4-20.8-.5-41.5.5-61.8-.5-19.3-1-38.1-4-57.3-6.4-2.5,0-4.4-2-5.9-4,10.4,0,20.3,1.5,30.1,2.5,0,0,.5,0,1.5.5,7.9-.5,14.3,0,20.8,1Z"/>
        <path class="cls-1" d="M368.3,499.1h0c1.5-.5,2-1,3-2h2c2-1,3-1.5,4.4-2.5h.5c1-.5,1.5-1.5,2.5-2.5.5-1.5,1-2.5,1-4-4-1-7.9-2.5-11.4-2-18.3.5-36.6,2-54.4,2s-16.3-1-29.2-1.5c0,0-8.4-.5-10.4-1-7.4-1.5-12.9-2-19.8-2.5,0,0-3-1-4-1.5-3-1.5-4.4-1-6.4-2,4-1.5,8.4-3,12.4-4.9,2,0,3.5-.5,6.9,0,33.6-2.5,65.7-4,97.9-7.9,60.8-8.4,119.1-25.7,174-53.9,3-1.5,5.4-4.4,8.4-6.9h1c4.9-1.5,9.4-2.5,13.8-3-4,24.2-17.3,44-32.6,61.8-36.6,43-86,62.8-139.9,72.7-4.9,1-9.9,2-14.8,2.5v3.5c14.8,1.5,29.7,3.5,44.5,4.9,12.4,1,24.7.5,37.1,1.5,3.5,0,6.9,3,10.4,4.4-3,2.5-5.9,6.9-9.9,7.4-17.8,3-36.1,4.9-56.3,7.4-4,0-6.4,0-8.9-.5-7.4-1.5-14.3-2.5-21.3-3.5,0,0-.5,0-1-.5-3.5-1-5.9-1.5-8.9-2v-.5c-2.5-1-4.4-1.5-6.4-2l-.5-.5c-2-1-3-1-4.4-1.5l-.5-.5c-3.5-1-6.4-2-9.4-2-24.2-1.5-48.9-3-73.6-4.4-19.8-1.5-39-2.5-58.8-4,0,0-.5,0-1-.5-2.5-1.5-4.4-2.5-6.4-3.5,1.5-.5,2.5-1,3-1,24.2-3,48.4-5.9,72.2-8.9,3.5-.5,6.4-2,9.9-4,0,0,4.4-1.5,4.9-1.5,5.9-1.5,8.4-2.5,13.3-3.5,0,0,3.5-1,4.4-1"/>
        <path class="cls-1" d="M327.8,516.4c2-.5,3.5-1.5,4.4-2h.5c2.5-1,4.4-2,5.9-2.5h1"/>
        <path class="cls-3" d="M661.9,339c-3.5-.5-5.9-2-8.4-3,0-1.5,0-2.5.5-3,3.5-6.9,10.4-13.3,4.9-21.3-5.9-8.9-16.3-10.9-26.2-9.4-19.3,3-31.6,14.8-41,31.6-4.9,9.9-10.4,19.3-16.8,29.2,4-37.6,7.9-75.6,13.8-112.7,3.5-22.7,8.4-45.5,12.9-68.2,1-4.9,3-9.9,5.9-14.3,1,25.7,2.5,51.4,3.5,77.6,1.5,0,3.5.5,4.9,1,3.5-9.4,6.9-19.3,11.4-30.6,2.5,3.5,4,4.9,4.4,7.4,8.4,29.2,24.2,53.9,44,76.1,7.9,8.9,19.8,14.3,29.7,21.3,5.4,4,10.4,7.4,15.8,11.4-20.3,2-39.5,4.4-59.3,6.9Z"/>
        <path class="cls-3" d="M430.6,583.7c47,12.9,93.9,16.8,139.9-2,4.9-2,10.4-4.9,15.8-7.4-4,5.9-7.4,13.8-12.9,17.8-12.9,8.9-26.7,16.3-44,26.7v30.1c0-8.4,0-17.3-.5-25.2,0-3-3-5.4-5.4-8.4-2,0-2.5-.5-4.4-1-6.9,0-12.9,1-19.3,1.5h-.5c-2,0-3,0-4.9-.5-1.5-1-2.5-1.5-4.4-2.5s-3.5-1-5.9-1-2,0-3-1c-2-1-3.5-1-5.9-1.5-14.3-6.4-27.2-12.4-40.5-18.8l-.5-.5c-.5-2.5-2-4.4-3.5-6.4Z"/>
        <path class="cls-5" d="M495.8,614.8c.5,0,2.5-1,4,.5.5,10.9,1,21.7,1,31.6,0,19.3,1.5,20.8,24.2,20.8v-51.9c1.5,2.5,4.4,5.4,4.9,8.4.5,8.4,0,16.8,0,26.2-1.5,10.4,2.5,15.3,11.9,17.8,5.4,1.5,10.9,4.9,16.8,8.4l2.5,2.5v.5c-2.5,2-5.4,3.5-7.4,3-3.5-.5-6.4-2.5-9.9-4.4h0s.5,0,.5,1c.5,4.4,1.5,7.9,2.5,11.9-6.9-6.9-12.9-7.9-18.8-2-4.9-4.4-8.9-7.9-10.9-9.9-2.5,4.4-4.4,7.4-5.9,9.9,0-.5-.5-1-2.5-2.5-4.9-2.5-8.9-3-11.9-5.4-5.4-4.4-9.4-3.5-12.9,1.5h-.5c-2.5.5-3.5,1-4.9,1.5,0,0-.5-.5-1-2v-2h.5c2-2.5,3-4.4,4-6.4h.5c11.4-3,14.8-9.9,14.3-20.8-2.5-12.4-1.5-25.2-1-38.1Z"/>
        <path class="cls-5" d="M545.2,407.2c-2,2.5-4.9,5.4-8.4,7.4-54.9,28.7-113.2,45.5-174,53.9-31.6,4.4-64.3,5.9-97.4,8.4,40.5-5.4,81.5-8.9,122.6-15.8,54.9-9.9,107.3-29.2,157.2-53.9Z"/>
        <path class="cls-2" d="M204.7,548.6s.5,0,1.5.5c47.9,6.4,90.4,10.9,137.9,8.9,0,0,4-1,4.4,2,1.5,1,3,1,4.4,1.5l.5.5c2.5,1,4.4,1.5,6.4,2v2h0c-48.9-4.4-98.4-8.9-147.8-13.8-14.8-1.5-29.7-4.4-44-7.4,12.4,1,24.7,2.5,36.6,4Z"/>
        <path class="cls-5" d="M206.2,549.1c-11.9-1-24.2-2.5-37.1-4-1,0-1-.5-1-1,0-1,0-1.5-.5-2,.5-.5,1.5-.5,3.5-1.5,39,1,76.6-3.5,113.7-10.4-3.5,2-6.4,4.4-9.9,4.9-24.2,3.5-47.9,5.9-72.2,8.9-1,0-2,.5-3,1,2,1.5,4,2,6.4,4Z"/>
        <path class="cls-2" d="M431.1,584.2c2,2,2,4,3.5,6.4-7.9-2.5-15.3-6.4-23.7-8.9-17.3-4.9-38.1-10.4-55.8-15.8-.5-.5-4-4.4-3-4.4,3.5,0,13.3,3.5,15.3,4,0,0,11.4,2.5,12.4,3,4.9.5,6.9,1.5,13.8,2.5h5.4c11.9,4,21.3,8.4,32.1,13.3Z"/>
        <path class="cls-5" d="M257.1,483.8c-9.4-.5-19.3-1.5-29.7-2.5,2-2,4.4-4.4,7.4-4.9,8.4-1,16.8-1,26.2-1-3.5,2-7.4,4-11.4,4.9,2,1,4.9,2,7.4,3.5Z"/>
        <path class="cls-5" d="M560.1,404.7c-4.9,1.5-13.8,3.5-14.8,2.5,4-2,9.9-4.9,14.8-6.9,1.5,1,.5,3,0,4.4Z"/>
        <path class="cls-2" d="M149.8,541.2q.5.5.5,2c0-.5-.5-1-.5-2Z"/>
        <path class="cls-1" d="M628.3,313.3c1.5-2,2.5-4,3.5-3.5,5.9,1,11.9,1.5,17.3,4,1.5.5,1.5,8.4,0,9.4-4,2.5-9.4,4-13.8,3.5-6.9-.5-8.9-5.9-6.9-13.3Z"/>
        <path class="cls-5" d="M348,559c-46.5,3-93.4-3-140.9-9.9,18.8,1,38.6,2.5,58.3,3.5,24.2,1.5,52.4,1.5,76.6,3,2.5,0,9.9,2,5.9,3.5Z"/>
        <path class="cls-5" d="M381.6,488.3c-33.6.5-67.2,1-108.7-3,11.9,0,30.6,2,43,1.5,18.3,0,36.1-.5,54.4-1,3,0,11.4,1,11.4,2.5Z"/>
        <path class="cls-5" d="M275.4,485.3c-5.9,0-14.3-.5-21.7-2,5.9,0,14.3,1,21.7,2Z"/>
        <path class="cls-5" d="M519.5,614.3c-4.9.5-11.4,1-18.3,1.5,5.4-1,11.9-1.5,18.3-1.5Z"/>
        <path class="cls-5" d="M477.5,609.9"/>
        <path class="cls-5" d="M482,610.4"/>
        <path class="cls-2" d="M542.8,678.1h0Z"/>
      </g>
      <g>
        <path class="cls-5" d="M390.5,795.2c-2.5,0-4.9,0-8.9-1.5-28.7-.5-55.8,0-83-.5-30.1,0-60.3-1.5-90.4-2v-1.5c.5-2.5,1.5-4.4,2.5-5.9h213v1c-3,3-5.9,6.4-9.4,7.4-6.9,1.5-14.3,2-21.3,3h-1c-.5-.5-1,0-1.5,0Z"/>
        <path class="cls-4" d="M355.9,761.6h1.5c14.8-.5,28.2-1,41.5-1.5h6.9c5.4,0,9.9,0,13.3-.5,10.4,0,21.3,0,33.6.5,9.4,0,16.3-.5,23.2-.5,48.4,0,96.9-.5,144.8-.5v5.9h-1c-58.3,1-115.2,2-172.5,2.5-28.2.5-55.8,0-84,0-2.5.5-10.9,3.5-7.4-5.9Z"/>
        <path class="cls-5" d="M817.6,805.6c-106.3,0-211.5,0-318.3.5-2.5-1.5-4-3-7.4-6.9,8.9-1,14.8-2.5,21.7-2.5,88,0,175.5-.5,263.4-.5s24.2-.5,36.1,0c4.4,0,11.9,1,4.4,9.4M687.6,799.2h-120.6v3h245.1v-3h-124.5Z"/>
        <path class="cls-7" d="M246.7,836.2c-14.8-.5-28.7-1-42-1.5,11.4-9.9,130.5-7.9,138.4,1.5h-96.4Z"/>
        <path class="cls-4" d="M381.6,717.6c-1-5.9,2-7.9,7.4-7.9,32.1-1,64.3-2.5,96.9-3.5,4,0,10.9-2,7.4,7.4-10.9,1-20.3,1.5-29.2,1.5-27.7,1-55.4,2-82.5,2.5Z"/>
        <path class="cls-7" d="M554.6,822.4h99.8c3,0,6.4,1,10.4,2,1.5.5,2,1,2.5,2.5v2c-.5,0-1,.5-2.5,1.5-34.1.5-67.2.5-100.3,0-4.4,0-8.4-4-12.4-5.9h0c1.5-1,2-2,2.5-2,0-.5,0,0,0,0Z"/>
        <path class="cls-4" d="M428.1,844.1c3.5-2,6.9-4,10.4-4,25.7-.5,51.4-.5,77.1-.5s5.9,2.5,9.4,4c-3,1.5-5.4,4.4-8.4,4.4-26.7.5-52.9,0-79.6,0-3.5.5-5.9-1.5-8.9-4Z"/>
        <path class="cls-7" d="M720.7,820.9c26.2,0,51.9.5,79.1,1q1,0,1,1c-2,2.5-3.5,5.4-5.4,5.4-23.2,0-46.5.5-69.7,0-2.5,0-4.4-4-6.4-6.4,0,0,.5,0,1.5-1Z"/>
        <path class="cls-4" d="M401.4,727.5v4c-.5,1-.5,2-.5,2h-72.7l.5-.5c.5-3,1.5-4.9,2-7.4h68.7l.5.5c.5,1,1,1.5,1.5,1.5Z"/>
        <path class="cls-4" d="M677.7,732.9c-4.4,2-8.4,5.4-12.4,5.4-20.3.5-41,.5-61.3,0-3,0-8.4,1.5-4-5.4h77.6Z"/>
        <path class="cls-4" d="M393.5,794.7h1c23.7,2,46.5,3.5,69.2,5.4-.5.5-1.5,1-3,2-22.7,0-44.5,0-65.7-.5,0,0-1,0-1.5-1,0-3,0-4.4,0-5.9Z"/>
        <path class="cls-4" d="M511.6,731.9h42.5v4h-79.1v-4h36.6Z"/>
        <path class="cls-4" d="M423.1,827.3c5.4.5,9.9.5,14.8,1v2.5h-47.4v-2.5c10.4.5,21.3,0,32.6-1Z"/>
        <path class="cls-5" d="M297.1,847.6c3.5,1.5,5.9,2.5,8.4,4v3c-5.9.5-12.4,1-18.8,1.5-1-9.9,4.4-9.4,10.4-8.4Z"/>
        <path class="cls-3" d="M688.6,799.2h124.1v3h-245.1v-3h121.1Z"/>
        <path class="cls-6" d="M394,722.1h0Z"/>
      </g>
    </g>
  </g>
</svg>