<?xml version="1.0" encoding="utf-8"?>
<!-- Generator: Adobe Illustrator 27.5.0, SVG Export Plug-In . SVG Version: 6.00 Build 0)  -->
<svg version="1.1" id="Layer_1" xmlns="http://www.w3.org/2000/svg" xmlns:xlink="http://www.w3.org/1999/xlink" x="0px" y="0px"
	 viewBox="0 0 2000 1024" style="enable-background:new 0 0 2000 1024;" xml:space="preserve">
<style type="text/css">
	.st0{fill:#3EA6C6;}
	.st1{fill:#EEE6D4;}
	.st2{fill:#4D1F19;}
	.st3{fill:#E67F45;}
	.st4{fill:#2F1A24;}
	.st5{fill:#371C22;}
	.st6{fill:#EFE9D6;}
</style>
<ellipse class="st0" cx="1008.2" cy="489.3" rx="100" ry="99"/>
<g>
	<path class="st1" d="M954.7,524.5c-0.1,1.1-0.1,2-0.2,2.9c-0.5-2.2-0.5-4.7-4.4-4.3c3.3-0.2,4.3-1.9,3.6-4.8c0.2,0,0.4,0.1,0.6,0.1
		c0.1,1.1-0.1,2.5,0.5,3.3c0.6,0.8,2,1,3,1.4C956.9,523.5,955.8,523.9,954.7,524.5z"/>
	<path class="st1" d="M1052.2,515.4c0.8,1.4,0.7,3.5,3.5,3.1c-3,0.4-3.1,2.5-3.1,5.3c-1.5-2-0.3-5-3.9-4.7c0.1-0.2,0.3-0.4,0.5-0.6
		c0.7-0.2,1.3-0.5,2-0.7C1051.5,517,1051.8,516.1,1052.2,515.4z"/>
	<path class="st1" d="M1055.6,468.1c1.3,0.7,2.5,1.5,3.4,2.2c-3.8-0.6-2.6,2.8-3.1,5.1c-0.9-2.1,0.3-5.6-4.1-4.9
		C1053.2,469.6,1054.4,468.9,1055.6,468.1z"/>
	<path class="st2" d="M1076.3,484.5c-0.7-0.7-1.4-1.2-1.8-1.5c0.7-0.8,1.6-1.8,2.5-2.8c0.3,1,0.5,2.7,2,2.5c-0.8,0.9-1.6,2-2.5,3
		C1076.5,485.5,1076.4,485.1,1076.3,484.5z"/>
	<path class="st2" d="M968.2,437.6c0.6-1,1.3-1.8,1.8-2.4c0.6,0.7,1.5,1.5,2.2,2.3c-1.9,0.1-1.8,2-2,4
		C969.2,440.2,970.5,438.1,968.2,437.6z"/>
	<path class="st3" d="M965.9,459.4c-0.4,0.1-0.9,0.1-1.5,0.2C964.7,459.4,965.3,459.3,965.9,459.4z"/>
	<path class="st3" d="M964.1,459.5c0,0.2-0.3,0.3-0.6,0.5C963.5,459.9,963.7,459.7,964.1,459.5z"/>
	<path class="st3" d="M961,462.3c0,0.1-0.1,0.2-0.3,0.4C960.7,462.6,960.8,462.4,961,462.3z"/>
	<g>
		<g>
			<path class="st1" d="M1020.4,466.8c1-2.4,2-4.8,3-7.4c1.2-2.1,2.3-4,3.4-6c1.8-3.4,4.4-5.8,8.3-6.4c2-0.3,4,0.1,5.3,1.9
				c1.1,1.6-0.3,3-1,4.3c0,0.1,0,0.3-0.1,0.6c0.5,0.2,1,0.5,1.5,0.7c-5.3,4.3-5.7,9.9-4.8,16.2c0.7,4.7,1.1,9.4,0.9,14.2
				c-0.4,7.5-4,13.3-11,17.2c-1.3,0.6-2.3,1.1-3.3,1.5c-9.4,3.8-18.8,3-28.5,0.3c-2.2-0.9-4.3-1.7-6.1-2.6c3.9-0.5,7.5-0.9,11.2-1.5
				c0.7-0.1,1.3-1,2-1.5c-0.7-0.3-1.4-0.9-2.1-0.9c-2.5-0.2-5-0.1-7.5-0.3c-3-0.2-6-0.6-9-1c0-0.2,0-0.5,0-0.7c1-0.2,2-0.4,3-0.5
				c10.9-2,20.9-6,28.3-14.7c3.1-3.7,5.9-7.6,6.7-12.7C1020.4,467.2,1020.4,467,1020.4,466.8 M1034,449.4c-0.3,1.3,0,2.4,1.5,2.5
				c0.9,0,2-0.2,2.8-0.7c0.3-0.2,0.2-1.8,0-1.9c-1.1-0.5-2.3-0.6-3.5-0.8C1034.6,448.5,1034.4,448.8,1034,449.4z"/>
			<path class="st4" d="M970.7,491.2"/>
			<path class="st3" d="M963.5,484.2c0,0,0.1,0,0.3,0.1c7.1,0.1,14,0.2,20.9,0.3c-0.1,0.2-0.2,0.4-0.5,0.7c-0.3,0.2-0.4,0.4-0.5,0.5
				c0,0,0,0-0.1,0c-0.4,0.1-0.6,0.3-0.9,0.5c0,0,0,0.1-0.1,0.2c-0.2,0-0.5-0.1-0.6-0.1l0,0c-1.3-0.3-2.5-0.7-3.8-0.8
				c-4.2-0.1-8.4,0.1-12.5-0.1c-3.9-0.2-7.7-0.8-11.6-1.3c-0.5,0-0.9-0.4-1.2-0.8c2.1,0,4.1,0.3,6.1,0.5c0,0,0.1,0,0.3,0.1
				C960.9,483.9,962.2,484,963.5,484.2z"/>
			<path class="st4" d="M981.5,486.8C981.5,486.8,981.5,486.8,981.5,486.8c0.3-0.1,0.4-0.2,0.6-0.4c0,0,0.2,0,0.4,0
				c0.4-0.2,0.6-0.3,0.9-0.5c0,0,0,0,0.1,0c0.2-0.1,0.3-0.3,0.5-0.5c0.1-0.3,0.2-0.5,0.2-0.8c-0.8-0.2-1.6-0.5-2.3-0.4
				c-3.7,0.1-7.4,0.4-11,0.4c-2.5,0-3.3-0.2-5.9-0.3c0,0-1.7-0.1-2.1-0.2c-1.5-0.3-2.6-0.4-4-0.5c0,0-0.6-0.2-0.8-0.3
				c-0.6-0.3-0.9-0.2-1.3-0.4c0.8-0.3,1.7-0.6,2.5-1c0.4,0,0.7-0.1,1.4,0c6.8-0.5,13.3-0.8,19.8-1.6c12.3-1.7,24.1-5.2,35.2-10.9
				c0.6-0.3,1.1-0.9,1.7-1.4c0,0,0,0,0.2,0c1-0.3,1.9-0.5,2.8-0.6c-0.8,4.9-3.5,8.9-6.6,12.5c-7.4,8.7-17.4,12.7-28.3,14.7
				c-1,0.2-2,0.4-3,0.5c0,0.2,0,0.5,0,0.7c3,0.3,6,0.7,9,1c2.5,0.2,5,0.1,7.5,0.3c0.7,0,1.4,0.6,2.1,0.9c-0.6,0.5-1.2,1.4-2,1.5
				c-3.6,0.6-7.3,1-11.4,1.5c-0.8,0-1.3,0-1.8-0.1c-1.5-0.3-2.9-0.5-4.3-0.7c0,0-0.1,0-0.2-0.1c-0.7-0.2-1.2-0.3-1.8-0.4
				c0,0,0,0,0-0.1c-0.5-0.2-0.9-0.3-1.3-0.4c0,0,0,0-0.1-0.1c-0.4-0.2-0.6-0.2-0.9-0.3c0,0,0,0-0.1-0.1c-0.7-0.2-1.3-0.4-1.9-0.4
				c-4.9-0.3-9.9-0.6-14.9-0.9c-4-0.3-7.9-0.5-11.9-0.8c0,0-0.1,0-0.2-0.1c-0.5-0.3-0.9-0.5-1.3-0.7c0.3-0.1,0.5-0.2,0.6-0.2
				c4.9-0.6,9.8-1.2,14.6-1.8c0.7-0.1,1.3-0.4,2-0.8c0,0,0.9-0.3,1-0.3c1.2-0.3,1.7-0.5,2.7-0.7c0,0,0.7-0.2,0.9-0.2"/>
			<path class="st4" d="M973.3,490.3c0.4-0.1,0.7-0.3,0.9-0.4c0,0,0,0,0.1,0c0.5-0.2,0.9-0.4,1.2-0.5c0,0,0,0,0.2,0"/>
			<path class="st5" d="M1040.9,454.4c-0.7-0.1-1.2-0.4-1.7-0.6c0-0.3,0-0.5,0.1-0.6c0.7-1.4,2.1-2.7,1-4.3
				c-1.2-1.8-3.3-2.2-5.3-1.9c-3.9,0.6-6.4,3-8.3,6.4c-1,2-2.1,3.9-3.4,5.9c0.8-7.6,1.6-15.3,2.8-22.8c0.7-4.6,1.7-9.2,2.6-13.8
				c0.2-1,0.6-2,1.2-2.9c0.2,5.2,0.5,10.4,0.7,15.7c0.3,0,0.7,0.1,1,0.2c0.7-1.9,1.4-3.9,2.3-6.2c0.5,0.7,0.8,1,0.9,1.5
				c1.7,5.9,4.9,10.9,8.9,15.4c1.6,1.8,4,2.9,6,4.3c1.1,0.8,2.1,1.5,3.2,2.3C1048.8,453.4,1044.9,453.9,1040.9,454.4z"/>
			<path class="st5" d="M994.1,503.9c9.5,2.6,19,3.4,28.3-0.4c1-0.4,2.1-1,3.2-1.5c-0.8,1.2-1.5,2.8-2.6,3.6
				c-2.6,1.8-5.4,3.3-8.9,5.4c0,1.5,0,3.8,0,6.1c0-1.7,0-3.5-0.1-5.1c0-0.6-0.6-1.1-1.1-1.7c-0.4,0-0.5-0.1-0.9-0.2
				c-1.4,0-2.6,0.2-3.9,0.3c0,0,0,0-0.1,0c-0.4,0-0.6,0-1-0.1c-0.3-0.2-0.5-0.3-0.9-0.5c-0.4-0.2-0.7-0.2-1.2-0.2
				c-0.3,0-0.4,0-0.6-0.2c-0.4-0.2-0.7-0.2-1.2-0.3c-2.9-1.3-5.5-2.5-8.2-3.8c0,0,0,0-0.1-0.1C994.7,504.7,994.4,504.3,994.1,503.9z
				"/>
			<path class="st2" d="M1007.3,510.2c0.1,0,0.5-0.2,0.8,0.1c0.1,2.2,0.2,4.4,0.2,6.4c0,3.9,0.3,4.2,4.9,4.2c0-3.5,0-7,0-10.5
				c0.3,0.5,0.9,1.1,1,1.7c0.1,1.7,0,3.4,0,5.3c-0.3,2.1,0.5,3.1,2.4,3.6c1.1,0.3,2.2,1,3.4,1.7c0.3,0.3,0.4,0.4,0.5,0.5
				c0,0,0,0,0,0.1c-0.5,0.4-1.1,0.7-1.5,0.6c-0.7-0.1-1.3-0.5-2-0.9c0,0,0,0,0,0s0.1,0,0.1,0.2c0.1,0.9,0.3,1.6,0.5,2.4
				c-1.4-1.4-2.6-1.6-3.8-0.4c-1-0.9-1.8-1.6-2.2-2c-0.5,0.9-0.9,1.5-1.2,2c0-0.1-0.1-0.2-0.5-0.5c-1-0.5-1.8-0.6-2.4-1.1
				c-1.1-0.9-1.9-0.7-2.6,0.3c0,0,0,0-0.1,0c-0.5,0.1-0.7,0.2-1,0.3c0,0-0.1-0.1-0.2-0.4c0-0.3,0-0.4,0-0.4c0,0,0,0,0.1,0
				c0.4-0.5,0.6-0.9,0.8-1.3c0,0,0,0,0.1,0c2.3-0.6,3-2,2.9-4.2C1007,515.4,1007.2,512.8,1007.3,510.2z"/>
			<path class="st2" d="M1017.3,468.2c-0.4,0.5-1,1.1-1.7,1.5c-11.1,5.8-22.9,9.2-35.2,10.9c-6.4,0.9-13,1.2-19.7,1.7
				c8.2-1.1,16.5-1.8,24.8-3.2C996.6,477.1,1007.2,473.2,1017.3,468.2z"/>
			<path class="st3" d="M948.4,496.8c0,0,0.1,0,0.3,0.1c9.7,1.3,18.3,2.2,27.9,1.8c0,0,0.8-0.2,0.9,0.4c0.3,0.2,0.6,0.2,0.9,0.3
				c0,0,0,0,0.1,0.1c0.5,0.2,0.9,0.3,1.3,0.4c0,0,0,0,0,0.1c0,0.1,0,0.3,0,0.3l0,0c-9.9-0.9-19.9-1.8-29.9-2.8c-3-0.3-6-0.9-8.9-1.5
				C943.5,496.2,946,496.5,948.4,496.8z"/>
			<path class="st2" d="M948.7,496.9c-2.4-0.2-4.9-0.5-7.5-0.8c-0.2,0-0.2-0.1-0.2-0.2c0-0.2,0-0.3-0.1-0.4c0.1-0.1,0.3-0.1,0.7-0.3
				c7.9,0.2,15.5-0.7,23-2.1c-0.7,0.4-1.3,0.9-2,1c-4.9,0.7-9.7,1.2-14.6,1.8c-0.2,0-0.4,0.1-0.6,0.2
				C947.8,496.4,948.2,496.5,948.7,496.9z"/>
			<path class="st3" d="M994.2,504c0.4,0.4,0.4,0.8,0.7,1.3c-1.6-0.5-3.1-1.3-4.8-1.8c-3.5-1-7.7-2.1-11.3-3.2
				c-0.1-0.1-0.8-0.9-0.6-0.9c0.7,0,2.7,0.7,3.1,0.8c0,0,2.3,0.5,2.5,0.6c1,0.1,1.4,0.3,2.8,0.5c0.5,0,0.5,0,1.1,0
				C990.1,502.1,992,503,994.2,504z"/>
			<path class="st2" d="M959,483.7c-1.9-0.1-3.9-0.3-6-0.5c0.4-0.4,0.9-0.9,1.5-1c1.7-0.2,3.4-0.2,5.3-0.2c-0.7,0.4-1.5,0.8-2.3,1
				C957.9,483.2,958.5,483.4,959,483.7z"/>
			<path class="st2" d="M1020.3,467.7c-1,0.3-2.8,0.7-3,0.5c0.8-0.4,2-1,3-1.4C1020.6,467,1020.4,467.4,1020.3,467.7z"/>
			<path class="st3" d="M937.3,495.3c0.1,0.1,0.1,0.1,0.1,0.4C937.4,495.6,937.3,495.5,937.3,495.3z"/>
			<path class="st4" d="M1034.1,449.2c0.3-0.4,0.5-0.8,0.7-0.7c1.2,0.2,2.4,0.3,3.5,0.8c0.3,0.1,0.3,1.7,0,1.9
				c-0.8,0.5-1.9,0.8-2.8,0.7C1034.1,451.8,1033.7,450.7,1034.1,449.2z"/>
			<path class="st2" d="M977.4,498.9c-9.4,0.6-18.9-0.6-28.5-2c3.8,0.2,7.8,0.5,11.8,0.7c4.9,0.3,10.6,0.3,15.5,0.6
				C976.7,498.2,978.2,498.6,977.4,498.9z"/>
			<path class="st2" d="M984.2,484.6c-6.8,0.1-13.6,0.2-22-0.6c2.4,0,6.2,0.4,8.7,0.3c3.7,0,7.3-0.1,11-0.2
				C982.5,484.1,984.2,484.3,984.2,484.6z"/>
			<path class="st2" d="M962.7,484c-1.2,0-2.9-0.1-4.4-0.4C959.5,483.6,961.2,483.8,962.7,484z"/>
			<path class="st2" d="M1012.1,510.1c-1,0.1-2.3,0.2-3.7,0.3C1009.5,510.2,1010.8,510.1,1012.1,510.1z"/>
			<path class="st2" d="M1003.6,509.2"/>
			<path class="st2" d="M1004.5,509.3"/>
			<path class="st3" d="M1016.8,523L1016.8,523C1016.8,523,1016.8,523,1016.8,523L1016.8,523z"/>
		</g>
		<g>
			<path class="st2" d="M986,546.7c-0.5,0-1,0-1.8-0.3c-5.8-0.1-11.3,0-16.8-0.1c-6.1,0-12.2-0.3-18.3-0.4c0,0,0-0.1,0-0.3
				c0.1-0.5,0.3-0.9,0.5-1.2c0,0,0,0,0.2,0c8.5,0,16.8,0,25.1,0c5.9,0,11.9,0,17.8,0c0,0,0,0,0,0.2c-0.6,0.6-1.2,1.3-1.9,1.5
				c-1.4,0.3-2.9,0.4-4.3,0.6c0,0,0,0-0.2,0C986.2,546.6,986.1,546.7,986,546.7z"/>
			<path class="st1" d="M979,539.9c0,0,0.1,0,0.3,0c3-0.1,5.7-0.2,8.4-0.3c0.4,0,0.7,0,1.4,0c1.1,0,2,0,2.7-0.1c2.1,0,4.3,0,6.8,0.1
				c1.9,0,3.3-0.1,4.7-0.1c9.8,0,19.6-0.1,29.3-0.1c0,0,0,0.2,0,0.4c0,0.4,0,0.6,0,0.8c0,0,0,0-0.2,0c-11.8,0.2-23.3,0.4-34.9,0.5
				c-5.7,0.1-11.3,0-17,0C980,541.2,978.3,541.8,979,539.9z"/>
			<path class="st2" d="M1072.4,548.8c-21.5,0-42.8,0-64.4,0.1c-0.5-0.3-0.8-0.6-1.5-1.4c1.8-0.2,3-0.5,4.4-0.5
				c17.8,0,35.5-0.1,53.3-0.1c2.4,0,4.9-0.1,7.3,0C1072.4,546.9,1073.9,547.1,1072.4,548.8 M1046.1,547.5c-8.1,0-16.3,0-24.4,0
				c0,0.2,0,0.4,0,0.6c16.5,0,33.1,0,49.6,0c0-0.2,0-0.4,0-0.6C1063.1,547.5,1054.8,547.5,1046.1,547.5z"/>
			<path class="st6" d="M956.9,555c-3-0.1-5.8-0.2-8.5-0.3c2.3-2,26.4-1.6,28,0.3C970,555,963.6,555,956.9,555z"/>
			<path class="st1" d="M984.2,531c-0.2-1.2,0.4-1.6,1.5-1.6c6.5-0.2,13-0.5,19.6-0.7c0.8,0,2.2-0.4,1.5,1.5
				c-2.2,0.2-4.1,0.3-5.9,0.3C995.3,530.7,989.7,530.9,984.2,531z"/>
			<path class="st6" d="M1019.2,552.2c6.8,0,13.5,0,20.2,0c0.6,0,1.3,0.2,2.1,0.4c0.3,0.1,0.4,0.2,0.5,0.5c0,0.2,0,0.4,0,0.4
				c-0.1,0-0.2,0.1-0.5,0.3c-6.9,0.1-13.6,0.1-20.3,0c-0.9,0-1.7-0.8-2.5-1.2c0,0,0,0,0,0C1019,552.4,1019.1,552.2,1019.2,552.2
				C1019.2,552.1,1019.2,552.2,1019.2,552.2z"/>
			<path class="st1" d="M993.6,556.6c0.7-0.4,1.4-0.8,2.1-0.8c5.2-0.1,10.4-0.1,15.6-0.1c0.6,0,1.2,0.5,1.9,0.8
				c-0.6,0.3-1.1,0.9-1.7,0.9c-5.4,0.1-10.7,0-16.1,0C994.7,557.5,994.2,557.1,993.6,556.6z"/>
			<path class="st6" d="M1052.8,551.9c5.3,0,10.5,0.1,16,0.2c0.2,0,0.2,0,0.2,0.2c-0.4,0.5-0.7,1.1-1.1,1.1c-4.7,0-9.4,0.1-14.1,0
				c-0.5,0-0.9-0.8-1.3-1.3C1052.5,552.1,1052.6,552.1,1052.8,551.9z"/>
			<path class="st1" d="M988.2,533c0,0.2,0,0.4,0,0.8c-0.1,0.2-0.1,0.4-0.1,0.4s0,0-0.1,0c-5,0-9.8,0-14.6,0c0,0,0,0,0.1-0.1
				c0.1-0.6,0.3-1,0.4-1.5c0,0,0,0,0.2,0c4.7,0,9.2,0,13.7,0c0,0,0,0,0.1,0.1C988,532.9,988.1,533,988.2,533z"/>
			<path class="st1" d="M1044.1,534.1c-0.9,0.4-1.7,1.1-2.5,1.1c-4.1,0.1-8.3,0.1-12.4,0c-0.6,0-1.7,0.3-0.8-1.1
				C1033.8,534.1,1039,534.1,1044.1,534.1z"/>
			<path class="st1" d="M986.6,546.6c0,0,0,0,0.2,0c4.8,0.4,9.4,0.7,14,1.1c-0.1,0.1-0.3,0.2-0.6,0.4c-4.6,0-9,0-13.3-0.1
				c0,0-0.2,0-0.3-0.2C986.6,547.2,986.6,546.9,986.6,546.6z"/>
			<path class="st1" d="M1010.5,533.9c3,0,5.8,0,8.6,0c0,0.3,0,0.5,0,0.8c-5.3,0-10.7,0-16,0c0-0.3,0-0.5,0-0.8
				C1005.4,533.9,1007.9,533.9,1010.5,533.9z"/>
			<path class="st1" d="M992.6,553.2c1.1,0.1,2,0.1,3,0.2c0,0.2,0,0.4,0,0.5c-3.2,0-6.4,0-9.6,0c0-0.2,0-0.3,0-0.5
				C988.1,553.5,990.3,553.4,992.6,553.2z"/>
			<path class="st2" d="M967.1,557.3c0.7,0.3,1.2,0.5,1.7,0.8c0,0.2,0,0.4,0,0.6c-1.2,0.1-2.5,0.2-3.8,0.3
				C964.8,557,965.9,557.1,967.1,557.3z"/>
			<path class="st5" d="M1046.3,547.5c8.5,0,16.8,0,25.1,0c0,0.2,0,0.4,0,0.6c-16.5,0-33.1,0-49.6,0c0-0.2,0-0.4,0-0.6
				C1029.8,547.5,1038,547.5,1046.3,547.5z"/>
			<path class="st0" d="M986.7,531.9C986.7,531.9,986.7,531.9,986.7,531.9z"/>
		</g>
	</g>
</g>
</svg>
